<svg width="126" height="105" viewBox="0 0 126 105" fill="none" xmlns="http://www.w3.org/2000/svg">
<path d="M8.61602 78.0024H2.69858C1.76048 78.0024 1 77.2419 1 76.3038V2.69858C1 1.76048 1.76048 1 2.69858 1H77.4362C78.3743 1 79.1348 1.76048 79.1348 2.69858V76.3038C79.1348 77.2419 78.3743 78.0024 77.4362 78.0024H71.2367" stroke="white" stroke-width="0.283097"/>
<path d="M1 7.79431H79.4179" stroke="white" stroke-width="0.283097"/>
<circle cx="4.39707" cy="4.39714" r="1.69858" fill="white"/>
<circle cx="8.92636" cy="4.39714" r="1.69858" fill="white"/>
<circle cx="12.8895" cy="4.39714" r="1.69858" fill="white"/>
<rect x="18.8341" y="13.1732" width="43.0307" height="5.09574" rx="2.54787" stroke="white" stroke-width="0.566194"/>
<rect x="8.6432" y="25.6294" width="62.8475" height="24.9125" rx="1.41548" stroke="white" stroke-width="0.566194"/>
<rect x="8.6432" y="58.4687" width="62.8475" height="24.9125" rx="1.41548" stroke="white" stroke-width="0.566194"/>
<circle cx="17.9852" cy="38.3688" r="5.66194" fill="white"/>
<circle cx="17.9852" cy="71.208" r="5.66194" fill="white"/>
<rect x="26.4795" y="34.4054" width="22.6478" height="2.83097" rx="1.41548" fill="white"/>
<rect x="26.4795" y="67.2447" width="22.6478" height="2.83097" rx="1.41548" fill="white"/>
<rect x="26.4795" y="39.5012" width="41.3322" height="2.83097" rx="1.41548" fill="white"/>
<rect x="26.4795" y="72.3405" width="41.3322" height="2.83097" rx="1.41548" fill="white"/>
<rect x="59.3171" y="45.1631" width="7.92671" height="2.83097" rx="1.41548" fill="#0B0B22"/>
<rect x="59.3171" y="78.0024" width="7.92671" height="2.83097" rx="1.41548" fill="#0B0B22"/>
<path d="M108.021 22.32C106.888 24.6039 105.599 26.808 104.161 28.9168C103.893 29.2929 103.626 29.6588 103.352 30.0044C101.955 31.7831 100.489 33.0842 99.3277 32.7759C92.8645 31.0615 88.7817 25.6608 88.7817 25.6608L89.9942 24.3055C89.9942 24.3055 97.7898 27.3108 98.3995 27.2532C99.0092 27.1956 102.852 17.6817 102.852 17.6817L108.021 22.32Z" fill="white"/>
<path opacity="0.2" d="M104.759 26.5857L104.163 28.9168C103.896 29.2929 103.628 29.6588 103.354 30.0044C103.323 29.3209 103.193 28.6455 102.967 27.9986C102.484 26.6738 100.724 25.0035 101.484 23.2552C102.059 21.8569 102.518 20.4144 102.854 18.9421L104.759 26.5857Z" fill="black"/>
<path opacity="0.2" d="M101.506 31.8306C100.943 31.3956 100.232 31.1907 99.5205 31.2581C98.8089 31.3255 98.1504 31.6602 97.6806 32.1931C97.571 32.3117 97.3963 32.1355 97.5025 32.017C98.0113 31.4449 98.7204 31.0849 99.4869 31.0095C100.253 30.934 101.02 31.1487 101.633 31.6104C101.76 31.7052 101.633 31.9187 101.506 31.8238V31.8306Z" fill="black"/>
<path d="M99.4263 28.3307L91.0724 28.1613C90.8079 28.1502 90.5536 28.0578 90.3448 27.8968C90.136 27.7358 89.9833 27.5144 89.9079 27.2634L87.3013 16.4213C87.2705 16.3137 87.2671 16.2003 87.2914 16.0911C87.3157 15.9819 87.3669 15.8803 87.4405 15.7954C87.514 15.7106 87.6077 15.645 87.7131 15.6047C87.8185 15.5643 87.9324 15.5504 88.0446 15.5641L96.3985 15.7369C96.6627 15.7472 96.917 15.839 97.1258 15.9994C97.3346 16.1598 97.4875 16.3808 97.563 16.6314L100.17 27.4735C100.2 27.581 100.204 27.6945 100.18 27.8037C100.155 27.9129 100.104 28.0145 100.03 28.0993C99.9569 28.1842 99.8632 28.2497 99.7578 28.2901C99.6524 28.3305 99.5385 28.3444 99.4263 28.3307Z" fill="#263238"/>
<path opacity="0.2" d="M99.4263 28.3307L91.0724 28.1613C90.8079 28.1502 90.5536 28.0578 90.3448 27.8968C90.136 27.7358 89.9833 27.5144 89.9079 27.2634L87.3013 16.4213C87.2705 16.3137 87.2671 16.2003 87.2914 16.0911C87.3157 15.9819 87.3669 15.8803 87.4405 15.7954C87.514 15.7106 87.6077 15.645 87.7131 15.6047C87.8185 15.5643 87.9324 15.5504 88.0446 15.5641L96.3985 15.7369C96.6627 15.7472 96.917 15.839 97.1258 15.9994C97.3346 16.1598 97.4875 16.3808 97.563 16.6314L100.17 27.4735C100.2 27.581 100.204 27.6945 100.18 27.8037C100.155 27.9129 100.104 28.0145 100.03 28.0993C99.9569 28.1842 99.8632 28.2497 99.7578 28.2901C99.6524 28.3305 99.5385 28.3444 99.4263 28.3307Z" fill="white"/>
<path d="M98.5723 28.3137L90.215 28.1443C89.9513 28.1321 89.6979 28.0392 89.4899 27.8783C89.2819 27.7175 89.1295 27.4967 89.0539 27.2465L86.4439 16.4044C86.4131 16.2968 86.4097 16.1834 86.434 16.0742C86.4582 15.965 86.5094 15.8634 86.583 15.7785C86.6566 15.6937 86.7503 15.6281 86.8557 15.5878C86.9611 15.5474 87.075 15.5335 87.1872 15.5472L95.5445 15.7166C95.8082 15.7288 96.0616 15.8218 96.2696 15.9826C96.4776 16.1435 96.63 16.3642 96.7056 16.6145L99.3122 27.4565C99.3428 27.5638 99.3462 27.6769 99.3221 27.7858C99.298 27.8947 99.2471 27.996 99.1739 28.0808C99.1008 28.1656 99.0076 28.2312 98.9026 28.2718C98.7977 28.3125 98.6842 28.3269 98.5723 28.3137Z" fill="#9BABB4"/>
<path opacity="0.2" d="M91.3281 22.2252C91.4179 22.5416 91.6055 22.8222 91.8648 23.0276C92.1241 23.233 92.4419 23.3529 92.7735 23.3704C92.9152 23.3846 93.0582 23.3641 93.1899 23.3107C93.3217 23.2572 93.438 23.1725 93.5288 23.0639C93.6195 22.9554 93.6818 22.8264 93.7102 22.6884C93.7386 22.5504 93.7322 22.4076 93.6915 22.2727C93.603 21.9559 93.4162 21.6747 93.1575 21.4686C92.8988 21.2625 92.5812 21.142 92.2495 21.1241C92.1076 21.1107 91.9646 21.1319 91.8329 21.1858C91.7012 21.2397 91.5849 21.3247 91.494 21.4333C91.4032 21.5419 91.3405 21.6708 91.3116 21.8089C91.2827 21.9469 91.2884 22.0898 91.3281 22.2252Z" fill="white"/>
<path d="M88.4962 22.9197C88.4962 22.9197 90.3252 22.8181 90.6164 23.1908C90.9075 23.5635 89.0716 23.9226 89.0716 23.9226C89.0716 23.9226 90.154 23.8921 90.4417 24.1463C90.7294 24.4004 89.373 24.8069 89.373 24.8069C89.373 24.8069 90.0957 24.8069 90.1231 25.2067C90.1505 25.6065 89.8765 25.7421 89.4758 25.8369C89.3099 25.877 89.1369 25.8782 88.9704 25.8405C88.8039 25.8029 88.6486 25.7274 88.5168 25.6201C88.3592 25.4642 88.4928 25.0611 88.4928 25.0611C88.4928 25.0611 87.8077 24.7222 87.7803 24.4647C87.7753 24.3851 87.7873 24.3052 87.8156 24.2305C87.844 24.1558 87.888 24.0878 87.9448 24.0311C87.8463 24.012 87.7543 23.9689 87.6771 23.9055C87.5999 23.8422 87.54 23.7607 87.5029 23.6685C87.4664 23.5886 87.4504 23.501 87.4564 23.4135C87.4624 23.3261 87.4901 23.2414 87.5372 23.1671C87.396 22.8692 87.2747 22.5625 87.1741 22.2489C87.085 21.9101 87.6913 21.6424 88.0578 21.429C88.4243 21.2155 89.0853 21.9609 89.6882 22.1066C89.6882 22.1066 89.9964 22.2929 89.6676 22.5199C89.3388 22.7469 88.6401 22.4047 88.4756 22.4183C88.3112 22.4318 88.4962 22.9197 88.4962 22.9197Z" fill="#E8C6A8"/>
<path d="M104.053 1.8116C104.053 1.8116 101.782 2.70268 102.341 4.49501C102.899 6.28734 101.426 6.12132 101.252 7.85944C101.077 9.59757 104.06 10.1329 103.248 11.6881C102.437 13.2432 101.193 13.6938 102.008 15.2083C102.824 16.7228 103.913 18.4576 103.913 19.5791C103.913 22.2354 109.051 15.6895 113.007 16.7669C116.963 17.8443 118 14.0055 116.384 13.1179C114.767 12.2302 112.671 10.9257 113.284 8.60484C113.897 6.28396 114.339 5.21669 112.541 4.01051C110.743 2.80433 111.729 2.60442 110.691 1.4965C109.756 0.500383 108.393 1.52699 106.924 1.0967C105.454 0.666405 104.053 1.8116 104.053 1.8116Z" fill="#263238"/>
<path d="M104.764 10.3124C104.783 10.4761 104.851 10.6304 104.959 10.7559C105.067 10.8814 105.21 10.9723 105.371 11.0173C105.531 11.0622 105.701 11.0592 105.86 11.0085C106.018 10.9579 106.158 10.8618 106.261 10.7326C106.365 10.6033 106.427 10.4467 106.441 10.2824C106.454 10.1181 106.418 9.95364 106.337 9.80968C106.256 9.66572 106.133 9.54878 105.985 9.47363C105.837 9.39848 105.669 9.3685 105.504 9.38748C105.394 9.40009 105.287 9.43403 105.19 9.48736C105.094 9.54068 105.009 9.61235 104.94 9.69826C104.871 9.78416 104.82 9.88262 104.79 9.98801C104.76 10.0934 104.751 10.2036 104.764 10.3124Z" fill="white"/>
<path d="M103.099 98.5127L102.185 102.243H100.198L100.106 98.5127H103.099Z" fill="#E8C6A8"/>
<path d="M94.4277 104.882C94.5373 103.666 95.0751 103.304 95.743 103.263C96.4109 103.222 98.9112 102.399 98.9112 102.399C98.9112 102.399 99.4284 101.626 99.8874 101.471C100.346 101.315 100.781 101.772 100.781 101.772L102.032 101.623C102.032 101.623 102.405 101.067 102.662 101.552C103.059 102.307 103.004 104.395 102.973 104.882H94.4277Z" fill="white"/>
<path d="M94.593 104.564H96.1412L102.92 104.53C103.005 104.53 102.988 104.398 102.902 104.401H102.443C102.443 104.401 102.443 104.401 102.443 104.384C102.349 104.24 102.287 104.079 102.259 103.909C102.231 103.74 102.239 103.567 102.282 103.401C102.325 103.235 102.402 103.079 102.509 102.944C102.616 102.809 102.75 102.697 102.902 102.616C102.974 102.578 102.902 102.463 102.824 102.504C102.661 102.592 102.518 102.712 102.403 102.857C102.289 103.001 102.205 103.167 102.157 103.344C102.11 103.522 102.099 103.707 102.126 103.889C102.152 104.07 102.216 104.245 102.313 104.401H101.358L94.5793 104.435C94.4868 104.435 94.5039 104.567 94.593 104.564Z" fill="black"/>
<path d="M99.2876 102.924C98.9451 102.514 98.421 102.399 98.0442 102.707C97.9826 102.758 97.9038 102.646 97.962 102.595C98.3936 102.257 98.9896 102.396 99.3903 102.86C99.4486 102.928 99.3458 102.992 99.2876 102.924Z" fill="#0B0B22"/>
<path d="M98.573 103.144C98.2305 102.734 97.7064 102.616 97.3297 102.927C97.2714 102.975 97.1892 102.863 97.2509 102.816C97.679 102.46 98.2784 102.612 98.6792 103.077C98.7374 103.144 98.6312 103.209 98.573 103.144Z" fill="#0B0B22"/>
<path d="M97.8623 103.361C97.5198 102.951 96.9957 102.836 96.619 103.144C96.5573 103.195 96.4785 103.08 96.5368 103.033C96.9683 102.677 97.5643 102.833 97.965 103.293C98.0233 103.365 97.9205 103.429 97.8623 103.361Z" fill="#0B0B22"/>
<path d="M111.322 49.6218C110.735 54.6307 109.854 59.6016 108.684 64.5093C108.266 66.3299 107.791 68.2702 107.259 70.3302C108.722 82.2768 102.998 99.536 102.998 99.536L99.933 99.4683C99.933 99.4683 99.5493 80.1795 99.909 70.0828C100.498 53.5385 102.536 37.7802 102.536 37.7802L110.887 37.7463C110.887 37.7463 112.329 40.2332 111.322 49.6218Z" fill="#263238"/>
<path opacity="0.2" d="M111.32 49.6219C110.734 54.6308 109.853 59.6017 108.683 64.5094C106.926 57.8923 110.104 43.7705 110.104 43.7705L111.32 49.6219Z" fill="black"/>
<path d="M99.5788 100.183L99.4829 98.8821H103.573L103.34 100.183H99.5788Z" fill="#263238"/>
<path d="M115.811 98.5127L114.893 102.243H112.906L112.817 98.5127H115.811Z" fill="#E8C6A8"/>
<path d="M112.215 100.183L112.119 98.8821H116.209L115.976 100.183H112.215Z" fill="#263238"/>
<path d="M107.136 104.882C107.243 103.666 107.784 103.304 108.452 103.263C109.12 103.222 111.62 102.399 111.62 102.399C111.62 102.399 112.137 101.626 112.593 101.471C113.048 101.315 113.49 101.772 113.49 101.772L114.737 101.623C114.737 101.623 115.11 101.067 115.371 101.552C115.768 102.307 115.713 104.395 115.682 104.882H107.136Z" fill="white"/>
<path d="M107.301 104.564H108.852L115.631 104.53C115.716 104.53 115.699 104.398 115.61 104.401H115.155V104.384C115.061 104.24 114.999 104.078 114.972 103.909C114.944 103.739 114.953 103.566 114.996 103.4C115.04 103.234 115.117 103.079 115.224 102.944C115.331 102.809 115.465 102.697 115.617 102.616C115.689 102.578 115.617 102.463 115.538 102.504C115.375 102.592 115.232 102.712 115.117 102.856C115.002 103 114.918 103.166 114.87 103.344C114.822 103.521 114.811 103.706 114.837 103.888C114.864 104.07 114.928 104.245 115.024 104.401H114.069L107.294 104.435C107.198 104.435 107.215 104.567 107.301 104.564Z" fill="black"/>
<path d="M111.998 102.924C111.655 102.514 111.128 102.399 110.754 102.707C110.693 102.758 110.611 102.646 110.672 102.595C111.104 102.257 111.7 102.396 112.101 102.86C112.159 102.928 112.053 102.992 111.998 102.924Z" fill="#0B0B22"/>
<path d="M111.298 103.144C110.955 102.734 110.431 102.616 110.054 102.927C109.996 102.975 109.914 102.863 109.972 102.816C110.404 102.46 111 102.612 111.4 103.077C111.462 103.144 111.356 103.209 111.298 103.144Z" fill="#0B0B22"/>
<path d="M110.561 103.361C110.218 102.951 109.691 102.836 109.317 103.144C109.256 103.195 109.174 103.08 109.235 103.033C109.667 102.677 110.263 102.833 110.663 103.293C110.722 103.365 110.616 103.429 110.561 103.361Z" fill="#0B0B22"/>
<path d="M108.446 38.4137C108.446 38.4137 110.004 61.2533 110.501 70.3301C111.087 80.7012 112.398 98.3772 112.573 99.5326H115.741C115.378 99.8714 119.81 84.0182 118.022 71.0992C119.697 58.746 121.735 49.6997 119.108 38.0648L108.446 38.4137Z" fill="#263238"/>
<path d="M120.076 38.9694C113.418 41.1446 102.228 40.4297 102.228 38.922C102.228 34.6732 103.748 29.8959 103.341 27.1278C100.193 24.9492 102.656 22.9807 102.378 19.7518C102.286 18.5621 102.647 17.3812 103.39 16.441C104.132 15.5007 105.203 14.8689 106.393 14.6696C106.961 14.5747 107.55 14.4799 108.129 14.4053L108.472 14.3613C110.017 14.1873 111.572 14.1149 113.126 14.1444C113.695 14.1444 114.284 14.1444 114.901 14.1614C115.517 14.1783 116.113 14.1986 116.682 14.2393C117.182 14.2739 117.67 14.4124 118.113 14.6456C118.556 14.8788 118.945 15.2016 119.254 15.593C119.562 15.9844 119.785 16.4356 119.906 16.9175C120.027 17.3993 120.044 17.9009 119.956 18.3898C119.446 21.2245 119.122 24.089 118.987 26.9652C118.959 27.5581 118.939 28.1307 118.932 28.6931C118.893 30.662 118.983 32.6313 119.203 34.5885C119.203 34.6258 119.203 34.6631 119.203 34.6969C119.299 35.4762 119.413 36.1945 119.545 36.8518C119.586 37.0585 119.631 37.255 119.679 37.4481C119.809 37.8445 119.966 38.5594 120.076 38.9694Z" fill="white"/>
<path opacity="0.2" d="M107.982 19.7993C107.982 19.8415 107.969 19.8828 107.946 19.9179C107.922 19.953 107.888 19.9804 107.849 19.9965C107.809 20.0127 107.766 20.0169 107.724 20.0087C107.682 20.0004 107.644 19.9801 107.614 19.9502C107.584 19.9204 107.563 19.8824 107.555 19.8409C107.546 19.7995 107.551 19.7566 107.567 19.7176C107.583 19.6786 107.611 19.6453 107.646 19.6218C107.682 19.5984 107.724 19.5858 107.766 19.5858C107.824 19.5858 107.878 19.6083 107.919 19.6484C107.959 19.6884 107.982 19.7427 107.982 19.7993Z" fill="black"/>
<path opacity="0.2" d="M107.635 21.9068C107.753 21.9068 107.848 21.8127 107.848 21.6967C107.848 21.5807 107.753 21.4866 107.635 21.4866C107.518 21.4866 107.423 21.5807 107.423 21.6967C107.423 21.8127 107.518 21.9068 107.635 21.9068Z" fill="black"/>
<path opacity="0.2" d="M107.635 23.838C107.753 23.838 107.848 23.7439 107.848 23.6279C107.848 23.5119 107.753 23.4179 107.635 23.4179C107.518 23.4179 107.423 23.5119 107.423 23.6279C107.423 23.7439 107.518 23.838 107.635 23.838Z" fill="black"/>
<path d="M113.137 14.1309C111.561 16.8719 107.852 18.5118 107.852 18.5118C107.348 17.2853 107.509 15.3167 108.129 14.3918L108.472 14.3477C110.02 14.1733 111.579 14.1009 113.137 14.1309Z" fill="#E8C6A8"/>
<path opacity="0.2" d="M119.575 36.8383C113.016 36.1234 106.693 30.0044 106.693 30.0044L119.003 34.0702C119.057 34.2845 119.132 34.4932 119.226 34.6936C119.322 35.4661 119.438 36.181 119.575 36.8383Z" fill="black"/>
<path opacity="0.2" d="M118.74 28.3137C118.543 29.4752 118.476 30.6545 118.538 31.8306C117.628 32.2165 116.607 32.2587 115.668 31.9492C114.382 31.4601 113.302 30.5534 112.606 29.3776C112.606 29.3776 116.343 30.106 117.267 29.7672C118.096 29.4623 116.113 23.1129 116.048 22.9333L118.788 26.6298C118.781 27.2058 118.747 27.7648 118.74 28.3137Z" fill="black"/>
<path d="M108.087 15.2083C108.073 15.2523 108.053 15.2943 108.029 15.3337C107.491 16.1706 108.074 16.9329 108.998 16.8685C109.087 16.8613 109.175 16.8489 109.262 16.8313C109.594 16.766 109.898 16.5989 110.129 16.3535C110.838 15.6003 111.605 14.9025 112.423 14.2664C111.053 13.5312 110.533 10.9189 110.403 9.28585L108.248 11.9964L107.847 12.5893C108.045 12.9184 108.201 13.2699 108.313 13.6362C108.408 13.8966 108.437 14.176 108.398 14.4501C108.359 14.7242 108.252 14.9845 108.087 15.2083Z" fill="#E8C6A8"/>
<path d="M112.215 14.1309C112.972 13.9455 113.764 13.9455 114.521 14.1309L112.428 17.6851C111.328 16.8923 110.064 17.9223 107.852 18.5118C109.685 17.4746 111.194 15.9591 112.215 14.1309Z" fill="#DBDBDB"/>
<path d="M108.409 14.2936C108.409 14.2936 107.131 14.0598 106.392 14.6561C106.123 15.5733 105.923 16.5087 105.792 17.4547C105.792 17.4547 107.022 16.8482 107.847 18.5118C107.851 18.5118 107.433 15.8589 108.409 14.2936Z" fill="#DBDBDB"/>
<g opacity="0.2">
<path d="M108.315 13.6363C108.203 13.27 108.047 12.9185 107.849 12.5894L108.25 11.9965L109.62 12.0269C109.378 12.6916 108.918 13.2578 108.315 13.6363Z" fill="black"/>
</g>
<path d="M110.801 6.37545C111.017 9.05886 111.164 10.1871 110.027 11.7355C108.314 14.0665 105.006 13.7311 103.999 11.1663C103.094 8.85557 102.892 4.85755 105.321 3.44131C107.749 2.02506 110.585 3.69542 110.801 6.37545Z" fill="#E8C6A8"/>
<path d="M105.591 2.93645C105.591 2.93645 105.023 5.22346 106.386 5.79605C107.749 6.36865 109.609 5.5826 109.609 7.32411C109.609 8.30668 111.167 8.00174 111.071 7.0971C110.976 6.19247 111.623 4.46451 109.701 3.52599C108.413 2.95635 106.99 2.75223 105.591 2.93645Z" fill="#263238"/>
<path d="M109.533 8.54726C109.386 8.54286 109.241 8.50458 109.112 8.43545C108.194 7.98483 108.067 5.68427 108.063 5.58602H108.238C108.238 5.60973 108.361 7.88318 109.19 8.29654C109.271 8.34657 109.362 8.3767 109.457 8.38436C109.552 8.39203 109.647 8.37701 109.735 8.34058C110.04 8.18473 110.122 7.69344 110.122 7.69005L110.293 7.71716C110.272 7.87181 110.218 8.02046 110.136 8.15391C110.055 8.28736 109.946 8.40279 109.817 8.49305C109.728 8.53294 109.631 8.55151 109.533 8.54726Z" fill="#263238"/>
<path d="M105.723 3.68522C105.723 3.68522 104.219 6.05692 103.178 5.49788C102.137 4.93883 104.616 2.27574 105.575 2.93643C106.534 3.59712 105.723 3.68522 105.723 3.68522Z" fill="#263238"/>
<path d="M105.129 10.509C105.129 10.509 106.448 9.91944 106.739 9.35023C106.739 9.35023 106.934 10.3667 106.242 10.7428C106.061 10.8493 105.846 10.8844 105.639 10.841C105.433 10.7977 105.251 10.6792 105.129 10.509Z" fill="white"/>
<path d="M106.179 7.56471C106.21 7.78155 106.118 7.97129 105.974 7.99162C105.83 8.01195 105.693 7.85271 105.662 7.65281C105.631 7.45291 105.72 7.24623 105.864 7.2259C106.008 7.20557 106.148 7.36481 106.179 7.58165" fill="#263238"/>
<path d="M103.981 7.93063C104.011 8.14747 103.919 8.33721 103.778 8.35754C103.638 8.37786 103.494 8.21863 103.463 8.00178C103.433 7.78494 103.522 7.5952 103.665 7.57487C103.809 7.55455 103.95 7.71379 103.981 7.91369" fill="#263238"/>
<path d="M103.73 7.57825L103.185 7.50032C103.185 7.50032 103.51 7.86963 103.73 7.57825Z" fill="#263238"/>
<path d="M104.933 7.88655C104.933 7.88655 104.638 8.50997 104.299 9.06563C104.275 9.10805 104.26 9.15521 104.255 9.20388C104.251 9.25255 104.257 9.30158 104.274 9.3476C104.29 9.39363 104.317 9.43555 104.351 9.47051C104.386 9.50547 104.428 9.53263 104.474 9.55013C104.705 9.62048 104.944 9.6648 105.186 9.68227L104.933 7.88655Z" fill="#DCAD83"/>
<path d="M112.017 8.08646C111.949 8.3218 111.832 8.54023 111.673 8.72719C111.513 8.91414 111.315 9.06533 111.092 9.17066C110.52 9.418 110.13 8.81152 110.205 8.1305C110.273 7.51724 110.65 6.64988 111.267 6.69393C111.883 6.73797 112.212 7.46642 112.017 8.08646Z" fill="#E8C6A8"/>
<path d="M110.986 8.67602H110.873V9.92286H110.986V8.67602Z" fill="white"/>
<path d="M110.947 10.5937C111.2 10.5937 111.406 10.3904 111.406 10.1397C111.406 9.88895 111.2 9.68569 110.947 9.68569C110.694 9.68569 110.488 9.88895 110.488 10.1397C110.488 10.3904 110.694 10.5937 110.947 10.5937Z" fill="white"/>
<path d="M106.813 6.99882C106.796 6.99657 106.778 6.99057 106.763 6.98122C106.748 6.97188 106.734 6.95939 106.724 6.94461C106.638 6.80809 106.52 6.69388 106.38 6.61141C106.24 6.52894 106.082 6.48056 105.92 6.47027C105.886 6.47028 105.853 6.45718 105.829 6.43377C105.804 6.41035 105.79 6.37847 105.789 6.34491C105.789 6.328 105.792 6.31117 105.798 6.29537C105.804 6.27958 105.813 6.26514 105.825 6.25287C105.837 6.2406 105.851 6.23074 105.867 6.22386C105.882 6.21698 105.899 6.21321 105.916 6.21277C106.123 6.22223 106.324 6.28074 106.503 6.38335C106.682 6.48596 106.833 6.62967 106.944 6.80231C106.953 6.81604 106.96 6.83153 106.964 6.84789C106.967 6.86424 106.967 6.88112 106.964 6.89754C106.961 6.91395 106.954 6.92958 106.945 6.94348C106.936 6.95738 106.923 6.96929 106.909 6.97849C106.896 6.9883 106.881 6.99519 106.865 6.9987C106.849 7.00221 106.833 7.00225 106.817 6.99882" fill="#263238"/>
<path d="M103.097 7.09374C103.081 7.0958 103.064 7.09446 103.048 7.08979C103.032 7.08513 103.017 7.07724 103.005 7.06663C102.978 7.04537 102.961 7.01461 102.957 6.98101C102.953 6.94741 102.963 6.91367 102.984 6.88706C103.11 6.72545 103.272 6.59592 103.459 6.50927C103.645 6.42263 103.85 6.38139 104.056 6.389C104.075 6.38827 104.093 6.39146 104.11 6.39837C104.128 6.40527 104.143 6.41573 104.156 6.42905C104.169 6.44236 104.178 6.45822 104.184 6.47557C104.19 6.49291 104.193 6.51134 104.191 6.52961C104.189 6.54789 104.184 6.56558 104.174 6.58152C104.165 6.59746 104.153 6.61126 104.138 6.62201C104.123 6.63276 104.105 6.6402 104.087 6.64384C104.069 6.64748 104.05 6.64723 104.032 6.64311C103.869 6.64061 103.708 6.67574 103.561 6.74574C103.414 6.81573 103.286 6.91865 103.186 7.0463C103.176 7.06091 103.163 7.0729 103.148 7.08119C103.132 7.08947 103.115 7.09378 103.097 7.09374Z" fill="#263238"/>
<path d="M105.929 7.21226L105.381 7.13433C105.381 7.13433 105.723 7.50364 105.929 7.21226Z" fill="#263238"/>
<path d="M119.783 16.5094C119.783 16.5094 124.492 29.1676 123.739 33.3113C122.499 40.1316 106.98 30.9938 106.682 29.6995L108.069 27.731C108.069 27.731 118.111 31.3461 118.663 31.0005C119.214 30.655 115.495 20.9344 115.495 20.9344C115.495 20.9344 116.039 15.0593 119.783 16.5094Z" fill="white"/>
<path opacity="0.2" d="M123.692 32.2711C122.995 32.4875 122.393 32.9329 121.987 33.5336C121.58 34.1343 121.393 34.8543 121.456 35.5746C121.456 35.7338 121.219 35.7677 121.206 35.6084C121.136 34.8332 121.336 34.0576 121.771 33.4096C122.207 32.7616 122.854 32.2799 123.603 32.0441C123.754 31.9933 123.853 32.2237 123.699 32.2711H123.692Z" fill="black"/>
<path d="M108.474 28.1274C108.474 28.1274 107.025 24.3496 106.686 24.0311C106.347 23.7126 102.552 23.7262 102.161 23.6279C101.771 23.5296 101.987 24.2276 102.679 24.3225C103.371 24.4173 104.631 24.7392 104.631 24.7392C104.631 24.7392 103.46 24.6579 103.237 24.9222C103.014 25.1864 102.035 27.0838 102.305 27.9715C102.576 28.8592 103.675 28.9134 104.018 28.988C104.36 29.0625 104.018 28.1308 104.018 28.1308C104.309 28.2535 104.617 28.3312 104.932 28.3611C105.474 28.4221 106.179 29.4487 106.713 29.6825C107.727 30.1603 108.94 28.3916 108.474 28.1274Z" fill="#E8C6A8"/>
<path d="M105.576 24.8747C105.278 24.8156 104.972 24.7951 104.668 24.8138C104.555 24.8138 104.535 24.6477 104.648 24.641C104.969 24.6188 105.292 24.6393 105.607 24.702C105.628 24.7077 105.647 24.7212 105.659 24.7398C105.671 24.7583 105.675 24.7806 105.671 24.8023C105.667 24.8239 105.656 24.8434 105.638 24.8568C105.62 24.8702 105.598 24.8766 105.576 24.8747Z" fill="#BF8C51"/>
<path d="M104.652 25.6574C104.132 25.4846 103.556 25.3186 103.036 25.5795C102.936 25.6303 102.834 25.488 102.933 25.4372C103.519 25.1289 104.135 25.3017 104.728 25.4982C104.834 25.5321 104.759 25.6913 104.652 25.6574Z" fill="#BF8C51"/>
<path d="M104.162 26.4333C103.929 26.3208 103.672 26.2669 103.412 26.2764C103.153 26.2858 102.9 26.3584 102.676 26.4875C102.58 26.5451 102.477 26.4028 102.577 26.3452C102.825 26.1983 103.107 26.1149 103.396 26.1025C103.686 26.0901 103.974 26.149 104.234 26.274C104.253 26.2853 104.266 26.3027 104.272 26.323C104.278 26.3433 104.277 26.3652 104.268 26.3845C104.26 26.4039 104.244 26.4195 104.225 26.4284C104.205 26.4374 104.183 26.4391 104.162 26.4333Z" fill="#BF8C51"/>
<path d="M103.991 28.2527C103.821 28.1579 103.673 28.0297 103.555 27.8758C103.437 27.7219 103.353 27.5458 103.306 27.3582C103.282 27.2498 103.447 27.1888 103.474 27.2972C103.51 27.4621 103.58 27.6179 103.68 27.7549C103.779 27.8919 103.906 28.0071 104.053 28.0934C104.152 28.1477 104.077 28.3069 103.981 28.2527H103.991Z" fill="#BF8C51"/>
<path d="M103.493 27.8359C103.403 27.8047 103.306 27.8009 103.213 27.825C103.121 27.8492 103.039 27.9002 102.976 27.9715C102.901 28.0562 102.767 27.9444 102.842 27.8597C102.93 27.7597 103.047 27.6886 103.177 27.6559C103.306 27.6232 103.443 27.6304 103.569 27.6767C103.675 27.7174 103.599 27.8766 103.493 27.8359Z" fill="#BF8C51"/>
<path d="M103.71 9.66871C103.594 9.65872 103.481 9.62311 103.38 9.56449C103.279 9.50587 103.193 9.42572 103.128 9.3299C102.914 9.06052 102.774 8.74052 102.724 8.40154C102.597 7.63921 102.871 6.9548 103.333 6.88026C103.796 6.80572 104.282 7.36138 104.409 8.12372C104.474 8.4632 104.448 8.81377 104.333 9.14016C104.298 9.26497 104.23 9.37834 104.136 9.46878C104.042 9.55922 103.926 9.62351 103.799 9.65516L103.71 9.66871ZM103.422 6.95819H103.35C102.933 7.02596 102.689 7.66293 102.809 8.37783C102.856 8.70294 102.988 9.01019 103.193 9.26891C103.258 9.36307 103.347 9.43863 103.451 9.48799C103.555 9.53735 103.67 9.55878 103.785 9.55013C103.897 9.52188 103.999 9.46458 104.081 9.38416C104.163 9.30374 104.222 9.20312 104.251 9.09273C104.36 8.7837 104.384 8.45195 104.323 8.13049C104.203 7.47997 103.809 6.97514 103.415 6.97514L103.422 6.95819Z" fill="white"/>
<path d="M106.066 9.27566C105.628 9.27566 105.196 8.74034 105.076 8.02544C104.957 7.31054 105.224 6.57869 105.686 6.50415C106.149 6.42962 106.635 6.98528 106.762 7.74761C106.827 8.08709 106.801 8.43766 106.686 8.76405C106.65 8.88855 106.582 9.00158 106.488 9.09192C106.395 9.18226 106.279 9.24678 106.152 9.27905L106.066 9.27566ZM105.775 6.56514H105.703C105.285 6.63291 105.042 7.26988 105.162 7.98478C105.282 8.69968 105.727 9.22484 106.138 9.15708C106.25 9.12883 106.352 9.07153 106.434 8.99111C106.516 8.91069 106.575 8.81007 106.604 8.69968C106.714 8.39098 106.739 8.05881 106.676 7.73745C106.563 7.08692 106.169 6.58209 105.765 6.58209L105.775 6.56514Z" fill="white"/>
<path d="M102.788 8.44222L102.73 8.37785C102.912 8.23351 103.135 8.14934 103.367 8.13729V8.22538C103.157 8.23857 102.955 8.31413 102.788 8.44222Z" fill="white"/>
<path d="M104.337 7.99155L104.269 7.94073C104.365 7.81458 104.506 7.72864 104.663 7.69981C104.82 7.67097 104.982 7.70131 105.118 7.78488L105.073 7.85941C104.956 7.78578 104.816 7.75849 104.679 7.78298C104.543 7.80747 104.42 7.88195 104.337 7.99155Z" fill="white"/>
<path d="M106.711 7.63926L106.67 7.56133C106.687 7.56133 108.55 6.57538 110.496 6.90741V6.99551C108.567 6.66686 106.728 7.62909 106.711 7.63926Z" fill="white"/>
</svg>
