<svg width="26" height="26" viewBox="0 0 26 26" fill="none" xmlns="http://www.w3.org/2000/svg">
<path d="M3.24959 5.41675V4.33342C2.96228 4.33342 2.68673 4.44756 2.48356 4.65072C2.2804 4.85389 2.16626 5.12944 2.16626 5.41675H3.24959ZM22.7496 5.41675H23.8329C23.8329 5.12944 23.7188 4.85389 23.5156 4.65072C23.3125 4.44756 23.0369 4.33342 22.7496 4.33342V5.41675ZM3.24959 6.50009H22.7496V4.33342H3.24959V6.50009ZM21.6663 5.41675V18.4168H23.8329V5.41675H21.6663ZM20.5829 19.5001H5.41626V21.6668H20.5829V19.5001ZM4.33293 18.4168V5.41675H2.16626V18.4168H4.33293ZM5.41626 19.5001C5.12894 19.5001 4.85339 19.386 4.65023 19.1828C4.44706 18.9796 4.33293 18.7041 4.33293 18.4168H2.16626C2.16626 19.2787 2.50867 20.1054 3.11816 20.7149C3.72766 21.3243 4.55431 21.6668 5.41626 21.6668V19.5001ZM21.6663 18.4168C21.6663 18.7041 21.5521 18.9796 21.349 19.1828C21.1458 19.386 20.8702 19.5001 20.5829 19.5001V21.6668C21.4449 21.6668 22.2715 21.3243 22.881 20.7149C23.4905 20.1054 23.8329 19.2787 23.8329 18.4168H21.6663Z" fill="white"/>
<path d="M3.24951 5.41675L12.9995 15.1667L22.7495 5.41675" stroke="white" stroke-width="2.16667" stroke-linecap="round" stroke-linejoin="round"/>
</svg>
