<svg width="34" height="21" viewBox="0 0 34 21" fill="none" xmlns="http://www.w3.org/2000/svg">
<path d="M3.19101 16.824V1H31.309V16.9457M31.309 16.9457L1 16.824V18.2846L2.33895 19.9888L32.161 19.867L33.5 18.0412V16.9457H31.309ZM5.38202 3.55618V12.0768H7.32959V14.5112L9.5206 12.0768H17.3109V3.55618H5.38202ZM9.64232 5.74719V10.3727L13.6592 7.9382L9.64232 5.74719Z" stroke="white"/>
<path d="M24.4926 13.6592L22.6667 8.05998L27.9008 9.88583L26.8053 11.1031L28.9963 13.0506L27.9008 14.3896L25.7098 12.3203L24.4926 13.6592Z" stroke="white"/>
<path d="M19.989 5.38203L21.6931 6.96443" stroke="white"/>
<path d="M23.519 4.16478C23.519 4.0674 23.519 5.58488 23.519 6.35579" stroke="white"/>
<path d="M26.927 5.38203L25.2229 7.20788" stroke="white"/>
<path d="M18.6497 8.79022H20.9624" stroke="white"/>
</svg>
