<svg width="23" height="23" viewBox="0 0 23 23" fill="none" xmlns="http://www.w3.org/2000/svg">
<g clip-path="url(#clip0_1138_2087)">
<path d="M16.4166 13.6419C16.1434 13.5126 14.8353 12.8657 14.5909 12.7651C14.3466 12.6644 14.1741 12.6357 13.9872 12.9088C13.8003 13.1819 13.2972 13.7713 13.1391 13.9582C12.9809 14.1451 12.8372 14.1594 12.5641 13.9582C11.7792 13.6441 11.0546 13.1967 10.4222 12.6357C9.85016 12.0955 9.36524 11.4699 8.9847 10.7813C8.82657 10.5226 8.9847 10.3788 9.0997 10.2351C9.2147 10.0913 9.35845 9.93318 9.5022 9.77505C9.60719 9.63821 9.69415 9.48844 9.76095 9.32943C9.79661 9.25544 9.81513 9.17437 9.81513 9.09224C9.81513 9.01011 9.79661 8.92904 9.76095 8.85505C9.76095 8.72568 9.1572 7.41755 8.9272 6.88568C8.6972 6.3538 8.49595 6.42568 8.33782 6.42568H7.76282C7.48891 6.43636 7.23042 6.55526 7.04407 6.7563C6.74329 7.04333 6.50504 7.3894 6.34425 7.77281C6.18347 8.15622 6.10361 8.56871 6.1097 8.98443C6.18408 10.0048 6.55926 10.9803 7.18782 11.7876C8.34167 13.504 9.92189 14.891 11.7734 15.8126C12.4059 16.0857 12.8947 16.2438 13.2828 16.3732C13.8276 16.5395 14.404 16.574 14.9647 16.4738C15.3371 16.3982 15.6901 16.247 16.0017 16.0294C16.3132 15.8118 16.5768 15.5325 16.7759 15.2088C16.9417 14.8091 16.9963 14.372 16.9341 13.9438C16.8622 13.8432 16.6897 13.7713 16.4166 13.6419Z" fill="white"/>
<path d="M19.1041 3.8525C18.11 2.84896 16.925 2.05465 15.6189 1.51644C14.3129 0.978224 12.9123 0.706995 11.4998 0.71875C9.62857 0.728542 7.79269 1.22911 6.17548 2.17045C4.55827 3.1118 3.21635 4.46098 2.28373 6.08324C1.35111 7.70549 0.860449 9.54405 0.860743 11.4153C0.861036 13.2865 1.35228 15.1249 2.2854 16.7469L0.8479 22.2812L6.51165 20.8438C8.07742 21.6958 9.8322 22.1406 11.6148 22.1375H11.4998C13.6243 22.1513 15.7048 21.5321 17.4759 20.3588C19.2471 19.1855 20.6287 17.5112 21.4445 15.5496C22.2603 13.5879 22.4734 11.4277 22.0566 9.34444C21.6398 7.26117 20.6119 5.34926 19.1041 3.8525ZM11.4998 20.2975C9.90475 20.3002 8.33919 19.8678 6.97165 19.0469L6.6554 18.86L3.29165 19.7369L4.1829 16.4594L3.98165 16.1287C2.8336 14.2799 2.40415 12.0739 2.77479 9.92941C3.14544 7.7849 4.29037 5.85104 5.99238 4.49475C7.69438 3.13847 9.83502 2.45413 12.0082 2.57157C14.1813 2.68901 16.2357 3.60007 17.7816 5.13188C18.6104 5.95397 19.2673 6.93279 19.714 8.01129C20.1607 9.08979 20.3883 10.2464 20.3835 11.4138C20.3797 13.7687 19.4425 16.0261 17.7773 17.6913C16.1121 19.3565 13.8547 20.2937 11.4998 20.2975Z" fill="white"/>
</g>
<defs>
<clipPath id="clip0_1138_2087">
<rect width="23" height="23" fill="white"/>
</clipPath>
</defs>
</svg>
